<?xml version="1.0" encoding="utf-8"?>
<!-- Generator: Adobe Illustrator 19.1.0, SVG Export Plug-In . SVG Version: 6.00 Build 0)  -->
<svg version="1.1" id="Layer_1" xmlns="http://www.w3.org/2000/svg" xmlns:xlink="http://www.w3.org/1999/xlink" x="0px" y="0px"
	 viewBox="0 0 24 24" style="enable-background:new 0 0 24 24;" xml:space="preserve">
<style type="text/css">
	.st0{fill:none;stroke:#777777;stroke-miterlimit:10;}
	.st1{fill:none;stroke:#777777;stroke-miterlimit:10;}
	.st2{fill:none;stroke:#777777;stroke-linejoin:round;stroke-miterlimit:10;}
	.st3{fill:none;stroke:#777777;stroke-linecap:round;stroke-linejoin:round;stroke-miterlimit:10;}
	.st4{fill:none;stroke:#777777;stroke-linecap:round;stroke-miterlimit:10;}
</style>
<path class="st0" d="M22.5,20.6h-21c-0.6,0-1-0.5-1-1v-14c0-0.6,0.4-1,1-1h21c0.6,0,1,0.4,1,1v14C23.5,20.1,23.1,20.6,22.5,20.6z"/>
<path class="st1" d="M13.6,4.1"/>
<g>
	<ellipse class="st2" cx="7.5" cy="10.8" rx="2.5" ry="3"/>
	<path class="st3" d="M5.1,12.4c-0.7,0.8-1.1,1.8-1.1,3c0,0.8,0.2,1.5,0.5,2.1h6.1c0.3-0.6,0.5-1.3,0.5-2.1c0-1.2-0.4-2.3-1.1-3"/>
</g>
<line class="st4" x1="14.5" y1="10.6" x2="19.5" y2="10.6"/>
<line class="st4" x1="14.5" y1="12.5" x2="19.5" y2="12.5"/>
<line class="st4" x1="14.5" y1="14.6" x2="19.5" y2="14.6"/>
</svg>
